<svg width="134" height="129" viewBox="0 0 134 129" fill="none" xmlns="http://www.w3.org/2000/svg">
<path d="M67.1113 -5.63877e-06C103.667 -2.52456e-06 133.301 28.8776 133.301 64.5C133.301 100.122 103.667 129 67.1113 129C30.5556 129 0.921359 100.122 0.921362 64.5C0.961496 28.8938 30.5723 0.0390995 67.1113 -5.63877e-06ZM67.1113 116.1C96.1991 116.093 119.835 93.2227 120.048 64.8783C120.262 36.5339 96.9724 13.3285 67.8878 12.9057C38.8032 12.4829 14.8138 35.001 14.1594 63.339L14.1594 51.8386L14.1594 64.5C14.1922 92.9846 37.8804 116.068 67.1113 116.1ZM57.5138 32.895L90.2778 64.8225L57.5138 96.75L48.1545 87.6297L71.5593 64.8225L48.1611 42.0153L57.5072 32.895L57.5138 32.895Z" fill="white"/>
</svg>
