<svg width="165" height="165" viewBox="0 0 165 165" fill="none" xmlns="http://www.w3.org/2000/svg">
<g filter="url(#filter0_d_506_52)">
<path d="M92.5 16C128.122 16 157 44.8776 157 80.5C157 116.122 128.122 145 92.5 145C56.8776 145 28 116.122 28 80.5C28.0391 44.8938 56.8939 16.0391 92.5 16ZM92.5 132.1C120.845 132.093 143.878 109.223 144.086 80.8783C144.293 52.5339 121.599 29.3285 93.2566 28.9057C64.9146 28.4829 41.5378 51.001 40.9 79.339L40.9 67.8386L40.9 80.5C40.932 108.985 64.0154 132.068 92.5 132.1ZM83.1475 48.895L115.075 80.8225L83.1475 112.75L74.0272 103.63L96.8344 80.8225L74.0337 58.0153L83.1411 48.895L83.1475 48.895Z" fill="white"/>
</g>
<defs>
<filter id="filter0_d_506_52" x="0" y="0" width="165" height="165" filterUnits="userSpaceOnUse" color-interpolation-filters="sRGB">
<feFlood flood-opacity="0" result="BackgroundImageFix"/>
<feColorMatrix in="SourceAlpha" type="matrix" values="0 0 0 0 0 0 0 0 0 0 0 0 0 0 0 0 0 0 127 0" result="hardAlpha"/>
<feOffset dx="-10" dy="2"/>
<feGaussianBlur stdDeviation="9"/>
<feComposite in2="hardAlpha" operator="out"/>
<feColorMatrix type="matrix" values="0 0 0 0 0 0 0 0 0 0 0 0 0 0 0 0 0 0 0.25 0"/>
<feBlend mode="normal" in2="BackgroundImageFix" result="effect1_dropShadow_506_52"/>
<feBlend mode="normal" in="SourceGraphic" in2="effect1_dropShadow_506_52" result="shape"/>
</filter>
</defs>
</svg>
